<svg id="Layer_1" data-name="Layer 1" xmlns="http://www.w3.org/2000/svg" viewBox="0 0 126 135.53"><title>catalog</title><path d="M73.25,123.92s0,2.35,0,2.35-0.13,2.23-.2,2.23h0c-0.07,0-.14-2.43-0.22-2.45s0-1.19,0-1.19-0.16-.63-0.25-0.63h0s-0.08-.31-0.12-0.31a2.75,2.75,0,0,0-.29-0.12s-0.06-.06-0.09,0a1.3,1.3,0,0,0-.16,0l-0.09,0-0.12.06-0.08.06-0.09.09-0.07.08-0.07.1-0.06.1,0,0.1,0,0.12,0,0.09s0,0.09,0,.14h0a1.3,1.3,0,0,0,1.28,1.57,1.36,1.36,0,0,0,1-2.24h0A1.15,1.15,0,0,0,73.25,123.92Z" transform="translate(-3.5 -2.97)" style="fill:none;stroke:#fff;stroke-miterlimit:10;stroke-width:9px"/><path d="M72.52,123.63h0Z" transform="translate(-3.5 -2.97)" style="fill:none;stroke:#fff;stroke-miterlimit:10;stroke-width:9px"/><path d="M73,128.5h0Z" transform="translate(-3.5 -2.97)" style="fill:none;stroke:#fff;stroke-miterlimit:10;stroke-width:9px"/><path d="M71.16,124.6l0-.09Z" transform="translate(-3.5 -2.97)" style="fill:none;stroke:#fff;stroke-miterlimit:10;stroke-width:9px"/><path d="M66.91,22.17c0.07,0.1.09,9,.09,22V23" transform="translate(-3.5 -2.97)" style="fill:none;stroke:#fff;stroke-miterlimit:10;stroke-width:9px"/><path d="M73.23,123.9h0Z" transform="translate(-3.5 -2.97)" style="fill:none;stroke:#fff;stroke-miterlimit:10;stroke-width:9px"/><path d="M71.87,123.73l0.16-.05Z" transform="translate(-3.5 -2.97)" style="fill:none;stroke:#fff;stroke-miterlimit:10;stroke-width:9px"/><path d="M72.12,123.65a1.48,1.48,0,0,1,.29,0A1.48,1.48,0,0,0,72.12,123.65Z" transform="translate(-3.5 -2.97)" style="fill:none;stroke:#fff;stroke-miterlimit:10;stroke-width:9px"/><path d="M71.33,124.19l0.07-.1Z" transform="translate(-3.5 -2.97)" style="fill:none;stroke:#fff;stroke-miterlimit:10;stroke-width:9px"/><path d="M71.65,123.85l0.12-.07Z" transform="translate(-3.5 -2.97)" style="fill:none;stroke:#fff;stroke-miterlimit:10;stroke-width:9px"/><path d="M71.23,124.39l0-.1Z" transform="translate(-3.5 -2.97)" style="fill:none;stroke:#fff;stroke-miterlimit:10;stroke-width:9px"/><path d="M117,24.5v94.67c-8-1.5-18-2.64-32.75,1.26-5.38,1.42-8.47,1.93-12.45,3.64,0.62,0.76,1.09,2.24-.19,2.24-1,0-1-.83-0.88-1.57-2.54-1.26-8.1-2.46-11.11-3.51C43.33,115.51,26,116.74,16,118.54v-94H8V125.08c12-.11,22.31-0.11,38-0.34,6.52-.1,17.49,9.26,25,9.26,6.85,0,16.55-9,22.07-9,18.3,0,22.92.26,31.92,0.11V24.5h-8Z" transform="translate(-3.5 -2.97)" style="fill:none;stroke:#fff;stroke-miterlimit:10;stroke-width:9px"/><path d="M71.47,124l0.09-.09Z" transform="translate(-3.5 -2.97)" style="fill:none;stroke:#fff;stroke-miterlimit:10;stroke-width:9px"/><path d="M72.77,123.68h0Z" transform="translate(-3.5 -2.97)" style="fill:none;stroke:#fff;stroke-miterlimit:10;stroke-width:9px"/><path d="M59.81,121.22c3,1.06,7.27,2.25,9.82,3.51h0s0.77-.09.78-0.14,0.39-.06.4-0.09,0.22-.08.23-0.12,0.12-.07.14-0.1,0.09-.07.11-0.1,0.07-.07.09-0.1l0.09-.09,0.1-.09,0.09-.07,0.12-.07,0.09,0,0.16-.05,0.09,0c0.09,0-2.58,0-2.47,0H67V44.21A95,95,0,0,1,69.55,22.1c-0.48-.69-2.57-1.34-3.07-2C52.93,3.31,29,9.44,16,8V118.54C26,116.74,43.53,115.51,59.81,121.22Z" transform="translate(-3.5 -2.97)" style="fill:none;stroke:#fff;stroke-miterlimit:10;stroke-width:9px"/><path d="M67,23.13v100.5h0s2.93,0,3,0,1.41,2.37,1.42,2.37,1.48,2.45,1.55,2.45h0c0.07,0,.15-2.28.21-2.23s0-1.17,0-1.17,0.11-.49.16-0.44h0a58.87,58.87,0,0,1,10.85-3.94C99,116.83,109,117.67,117,119.17V8.4c-21,2.79-26.41-5-50.51,13.7C66.25,22.28,67,22.92,67,23.13Z" transform="translate(-3.5 -2.97)" style="fill:none;stroke:#fff;stroke-miterlimit:10;stroke-width:9px"/></svg>