<svg id="Layer_1" data-name="Layer 1" xmlns="http://www.w3.org/2000/svg" viewBox="0 0 137.3 135"><title>collections</title><path d="M135.26,109.56l-3.22-23a3.88,3.88,0,0,0-4.37-3.29L95.09,87.84l-47.5,34.47L46.27,125a6.11,6.11,0,0,1-.29,1l86-12A3.88,3.88,0,0,0,135.26,109.56Z" transform="translate(-2.5 -2.5)" style="fill:none;stroke:#fff;stroke-miterlimit:10;stroke-width:9px"/><path d="M49.35,120.07L95.09,87.84l31-22.5a3.88,3.88,0,0,0,.86-5.4L113.33,41.15a3.88,3.88,0,0,0-5.4-.86L77.34,62.49Z" transform="translate(-2.5 -2.5)" style="fill:none;stroke:#fff;stroke-miterlimit:10;stroke-width:9px"/><path d="M44.07,123.77c0,0.41,2.76-1.46,2.76-1.46L77,62.49,93.14,30.34a3.84,3.84,0,0,0-1.65-5.19L70.76,14.82c-1.9-.95-5.73-0.16-6.68,1.74L43.36,55.23Z" transform="translate(-2.5 -2.5)" style="fill:none;stroke:#fff;stroke-miterlimit:10;stroke-width:9px"/><path d="M44,123.77L43.29,55.23V10.07c0-3.4.32-3.06-3.08-3.06h-24C12.76,7,7,6.67,7,10.07V126.61c0,5.93-.93,6.39,9.15,6.39h24c2.9,0,3.87-1.13,3.85-2.89C44.05,130,44,124.18,44,123.77Zm-8.38,1A5.33,5.33,0,1,1,41,119.41,5.33,5.33,0,0,1,35.66,124.74Z" transform="translate(-2.5 -2.5)" style="fill:none;stroke:#fff;stroke-miterlimit:10;stroke-width:9px"/><circle cx="33.16" cy="116.91" r="5.33" style="fill:none;stroke:#fff;stroke-miterlimit:10;stroke-width:9px"/></svg>