<svg id="Layer_1" data-name="Layer 1" xmlns="http://www.w3.org/2000/svg" viewBox="0 0 454.62 63"><title>graber</title><path d="M133.75,3.63c7.36,0,14.08,2.06,21.25,5.1,0,0,.63,13.22.63,13.4C150.88,9.34,138.77,7.38,134.56,7.38c-17.22,0-25.91,12-25.91,26.45,0,12.87,6.81,28.24,25.55,28.24,2.69,0,9.51-.27,15.33-4.2V43.39a4.44,4.44,0,0,0-2.33-4h13.27a4.35,4.35,0,0,0-2.42,4V55.28a8.27,8.27,0,0,0,1.25,3.84C151.86,63.68,139.4,66,132.68,66,115,66,99.23,53.67,99.23,35,99.23,19.81,110.8,3.63,133.75,3.63Z" transform="translate(-3 -3)" style="fill:#fff"/><path d="M211,19.35c0,9.65-8.61,14.57-14.17,15,4.84,1,7.35,4.74,8.69,6.71,0,0,9.51,16.35,13.45,20.55,1.88,2.15,5.74,3.57,5.74,3.57l-9.14.18a9.31,9.31,0,0,1-7.36-4.2c-4.57-6.7-7.8-12.16-10.94-17.16-2.33-3.57-4.21-7.41-8.88-7.41h-5.2V61.18a4.6,4.6,0,0,0,2.51,4H172.32a4.52,4.52,0,0,0,2.42-4V8.45a4.31,4.31,0,0,0-2.42-4h16.86C207.12,4.43,211,13.73,211,19.35ZM189.9,8c-4,0-6.72.27-6.72,0.27V32.85S186,33,188.37,33c6.81,0,13.54-4,13.54-13.41C201.91,15.42,199.4,8,189.9,8Z" transform="translate(-3 -3)" style="fill:#fff"/><path d="M254.72,3s23.13,54.42,24.57,57.82c0.72,1.88,1.35,3,4.48,4.38H267.55c2.33-1.08,3-2.33,2.24-4.38-0.54-1.07-3-6.79-5.83-13.67H240.74c-3,6.7-5.29,12.6-5.65,13.67-0.72,2.05-.45,3.48,1.88,4.38H226c2.51-1.7,3.32-2.68,4.13-4.38C231.68,57.42,254.72,3,254.72,3ZM242.26,43.3h20.17c-4.66-11.26-10.13-25-10.13-25S246.21,33.65,242.26,43.3Z" transform="translate(-3 -3)" style="fill:#fff"/><path d="M330.31,18.28c0,10.54-12.11,14.12-12.11,14.12S336,33.65,336,48.4c0,7-4.84,16.8-24,16.8H292.56a4.15,4.15,0,0,0,2.51-4V8.45a4,4,0,0,0-2.51-4h17C315.7,4.43,330.31,6.31,330.31,18.28ZM309.42,8.1c-3.86,0-5.92.18-5.92,0.18V30.79a37,37,0,0,0,3.77.18c4.39,0,14.52-.9,14.52-12.15C321.79,11,315.34,8.1,309.42,8.1Zm1.26,26.63c-2.78,0-7.17.17-7.17,0.17V61.35a28,28,0,0,0,4.21.27c5.65,0,18.74-.81,18.74-14.12C326.45,37,318.21,34.73,310.68,34.73Z" transform="translate(-3 -3)" style="fill:#fff"/><path d="M381,4.43l0.18,7c-1.79-2.06-3.68-3.12-7.53-3.12-1.7,0-15.42-.18-15.42-0.18V29.63h14.62c1.25,0,2.69-1.43,3.14-2.5v8.66c-0.45-1.07-1.88-2.5-3.14-2.5H358.21V60.82a92.18,92.18,0,0,0,10.4.53c9.68,0,13.09,0,16.41-5.63l-1.88,9.47h-36a4.14,4.14,0,0,0,2.69-4V8.45a4.24,4.24,0,0,0-2.51-4H381Z" transform="translate(-3 -3)" style="fill:#fff"/><path d="M435.77,19.35c0,9.65-8.61,14.57-14.17,15,4.84,1,7.35,4.74,8.7,6.71,0,0,9.5,16.35,13.45,20.55,1.88,2.15,5.74,3.57,5.74,3.57l-9.15.18a9.31,9.31,0,0,1-7.35-4.2c-4.57-6.7-7.8-12.16-10.94-17.16-2.33-3.57-4.22-7.41-8.88-7.41H408V61.18a4.59,4.59,0,0,0,2.51,4H397.13a4.52,4.52,0,0,0,2.42-4V8.45a4.32,4.32,0,0,0-2.42-4H414C431.92,4.43,435.77,13.73,435.77,19.35ZM414.7,8c-4,0-6.72.27-6.72,0.27V32.85s2.87,0.18,5.2.18c6.81,0,13.54-4,13.54-13.41C426.72,15.42,424.21,8,414.7,8Z" transform="translate(-3 -3)" style="fill:#fff"/><g style="opacity:0.5"><rect y="50.27" width="40.27" height="3.97" style="fill:#fff"/><rect x="0.09" y="43.69" width="40.27" height="3.97" style="fill:#fff"/><rect x="0.01" y="56.81" width="40.27" height="3.97" style="fill:#fff"/><path d="M44.27,3.08A41.26,41.26,0,0,0,3,44.34H85.53A41.26,41.26,0,0,0,44.27,3.08ZM44.19,5.19C64.8,5.19,81.65,21.56,83,42.27l-77.6-.06C7.13,21.91,23.88,5.19,44.19,5.19Z" transform="translate(-3 -3)" style="fill:#fff"/><path d="M49.94,39.43H80A36,36,0,0,0,30.77,10.76l5,0.87L42.42,34a5.6,5.6,0,0,1,1.39-.3L42,11l4.4-2.63-1.7,25.35A5.58,5.58,0,0,1,46,34L52.23,11.6l5-1L46.8,34.3a5.64,5.64,0,0,1,1.15.77L62,15.43l5.06,0.81L48.48,35.58a5.66,5.66,0,0,1,.88,1.32L70.22,22.58l4.48,2.49L49.58,37.41a5.61,5.61,0,0,1,.31,1.47L76,32.16,79.34,36,49.9,39.21s0,0.07,0,.11m-9.35-4.15a5.66,5.66,0,0,1,1.1-.78L30.72,10.78a36,36,0,0,0-9.48,5.71l4.82-.86Zm-1.84,4.15s0-.08,0-0.11L9.12,36.53q-0.31,1.43-.5,2.9H38.7V39.31Zm0-.41a5.64,5.64,0,0,1,.3-1.44l-25.5-12L18,22.92,39.23,37a5.57,5.57,0,0,1,.84-1.3L21.1,16.6a36,36,0,0,0-12,19.86l3.23-3.87Z" transform="translate(-3 -3)" style="fill:#fff"/><rect x="42.19" y="50.37" width="40.27" height="3.97" style="fill:#fff"/><rect x="42.28" y="43.79" width="40.27" height="3.97" style="fill:#fff"/><rect x="42.2" y="56.91" width="40.27" height="3.97" style="fill:#fff"/></g><path d="M447.21,57.63a5.21,5.21,0,1,1,5.2,5.21A5.21,5.21,0,0,1,447.21,57.63Zm5.2,4.64a4.64,4.64,0,1,0-4.64-4.64A4.64,4.64,0,0,0,452.41,62.27ZM452,54.57c2.09-.08,2.45.85,2.45,1.5,0,1-1.17,1.48-1.78,1.56a1.41,1.41,0,0,1,.73.57l1.09,1.58a2.31,2.31,0,0,0,1.07.93l-1.06,0a1,1,0,0,1-.76-0.54l-1.22-1.72a1.12,1.12,0,0,0-.95-0.62h-0.38V60.2a0.54,0.54,0,0,0,.27.52h-1.44a0.57,0.57,0,0,0,.27-0.52V55a0.51,0.51,0,0,0-.27-0.44h2ZM452.11,55c-0.46,0-.76,0-0.87,0V57.4h0.58c0.87,0,1.74-.22,1.74-1.32C453.56,55.61,453.26,55,452.11,55Z" transform="translate(-3 -3)" style="fill:#fff"/></svg>