<svg id="Layer_1" data-name="Layer 1" xmlns="http://www.w3.org/2000/svg" viewBox="0 0 129.15 135"><title>media</title><polygon points="106.47 66.85 124 66.85 124 51.91 107.26 51.91 124 51.91 124 36.97 106.47 36.97 106.47 66.85" style="fill:none;stroke:#fff;stroke-miterlimit:10;stroke-width:9px"/><rect x="106.47" y="20.09" width="17.54" height="16.89" style="fill:none;stroke:#fff;stroke-miterlimit:10;stroke-width:9px"/><rect x="106.47" y="66.85" width="17.54" height="15.59" style="fill:none;stroke:#fff;stroke-miterlimit:10;stroke-width:9px"/><rect x="45.42" y="20.09" width="16.89" height="9.09" style="fill:none;stroke:#fff;stroke-miterlimit:10;stroke-width:9px"/><polygon points="106.47 116.21 124 116.21 124 98.67 107.63 98.67 124 98.67 124 82.44 106.47 82.44 106.47 116.21" style="fill:none;stroke:#fff;stroke-miterlimit:10;stroke-width:9px"/><path d="M114,139h10.56c4.28,0,7-3.77,7-7.81v-6.48H114V139Z" transform="translate(-7.5 -8.5)" style="fill:none;stroke:#fff;stroke-miterlimit:10;stroke-width:9px"/><path d="M114,90.42V75.35h-8.44V116c0,4.29-2.64,8.69-6.93,8.69H69.8v0H52.92v6.48c0,4,3.77,7.81,7.06,7.81h54V90.42Z" transform="translate(-7.5 -8.5)" style="fill:none;stroke:#fff;stroke-miterlimit:10;stroke-width:9px"/><path d="M125,13.65H114V28.59h17.54v-8.4A6.13,6.13,0,0,0,125,13.65Z" transform="translate(-7.5 -8.5)" style="fill:none;stroke:#fff;stroke-miterlimit:10;stroke-width:9px"/><path d="M69.8,37.68H80.41c4.29,0,6.93,3.17,6.93,7.46v1.11c0,4.29-2.64,8.32-6.93,8.32H98.6c4.29,0,6.93,3,6.93,7.27V75.35H114V13.65H69.8v24Z" transform="translate(-7.5 -8.5)" style="fill:none;stroke:#fff;stroke-miterlimit:10;stroke-width:9px"/><path d="M69.8,13.65H60.48c-3.79,0-7.56,2.5-7.56,6.53v8.4H69.8V13.65Z" transform="translate(-7.5 -8.5)" style="fill:none;stroke:#fff;stroke-miterlimit:10;stroke-width:9px"/><line x1="62.95" y1="28.53" x2="62.95" y2="19.44" style="fill:none;stroke:#fff;stroke-linecap:round;stroke-linejoin:round;stroke-width:9px"/><line x1="62.95" y1="4.5" x2="62.95" y2="19.44" style="fill:none;stroke:#fff;stroke-linecap:round;stroke-linejoin:round;stroke-width:9px"/><line x1="62.95" y1="115.56" x2="62.95" y2="129.2" style="fill:none;stroke:#fff;stroke-linecap:round;stroke-linejoin:round;stroke-width:9px"/><line x1="107.12" y1="19.44" x2="107.12" y2="4.5" style="fill:none;stroke:#fff;stroke-linecap:round;stroke-linejoin:round;stroke-width:9px"/><line x1="107.12" y1="115.56" x2="107.12" y2="129.85" style="fill:none;stroke:#fff;stroke-linecap:round;stroke-linejoin:round;stroke-width:9px"/><line x1="107.12" y1="129.85" x2="107.12" y2="130.5" style="fill:none;stroke:#fff;stroke-linecap:round;stroke-linejoin:round;stroke-width:9px"/><line x1="107.12" y1="115.56" x2="107.12" y2="81.79" style="fill:none;stroke:#fff;stroke-linecap:round;stroke-linejoin:round;stroke-width:9px"/><line x1="107.12" y1="66.2" x2="107.12" y2="36.32" style="fill:none;stroke:#fff;stroke-linecap:round;stroke-linejoin:round;stroke-width:9px"/><line x1="107.12" y1="36.32" x2="107.12" y2="19.44" style="fill:none;stroke:#fff;stroke-linecap:round;stroke-linejoin:round;stroke-width:9px"/><line x1="107.12" y1="66.2" x2="107.12" y2="81.79" style="fill:none;stroke:#fff;stroke-linecap:round;stroke-linejoin:round;stroke-width:9px"/><line x1="46.07" y1="19.44" x2="62.95" y2="19.44" style="fill:none;stroke:#fff;stroke-linecap:round;stroke-linejoin:round;stroke-width:9px"/><line x1="107.12" y1="19.44" x2="124.65" y2="19.44" style="fill:none;stroke:#fff;stroke-linecap:round;stroke-linejoin:round;stroke-width:9px"/><line x1="107.12" y1="36.32" x2="124.65" y2="36.32" style="fill:none;stroke:#fff;stroke-linecap:round;stroke-linejoin:round;stroke-width:9px"/><line x1="107.12" y1="51.26" x2="124.65" y2="51.26" style="fill:none;stroke:#fff;stroke-linecap:round;stroke-linejoin:round;stroke-width:9px"/><line x1="107.12" y1="66.2" x2="124.65" y2="66.2" style="fill:none;stroke:#fff;stroke-linecap:round;stroke-linejoin:round;stroke-width:9px"/><line x1="124.65" y1="81.79" x2="107.12" y2="81.79" style="fill:none;stroke:#fff;stroke-linecap:round;stroke-linejoin:round;stroke-width:9px"/><line x1="124.65" y1="98.03" x2="107.77" y2="98.03" style="fill:none;stroke:#fff;stroke-linecap:round;stroke-linejoin:round;stroke-width:9px"/><line x1="107.12" y1="115.56" x2="124.65" y2="115.56" style="fill:none;stroke:#fff;stroke-linecap:round;stroke-linejoin:round;stroke-width:9px"/><line x1="98.68" y1="66.2" x2="107.12" y2="66.2" style="fill:none;stroke:#fff;stroke-linecap:round;stroke-linejoin:round;stroke-width:9px"/><path d="M98.6,124.71c4.29,0,6.93-4.4,6.93-8.69V61.84c0-4.29-2.64-7.27-6.93-7.27H20.66c-4.29,0-8.66,3-8.66,7.27V116c0,4.29,4.37,8.69,8.66,8.69H98.6Zm-39-13.88a21.9,21.9,0,1,1,21.9-21.9A21.9,21.9,0,0,1,59.63,110.83Z" transform="translate(-7.5 -8.5)" style="fill:none;stroke:#fff;stroke-miterlimit:10;stroke-width:9px"/><circle cx="52.13" cy="80.43" r="21.9" style="fill:none;stroke:#fff;stroke-miterlimit:10;stroke-width:9px"/><path d="M80.41,54.57c4.29,0,6.93-4,6.93-8.32V45.14c0-4.29-2.64-7.46-6.93-7.46H44c-4.29,0-8.66,3.17-8.66,7.46v1.11c0,4.29,4.37,8.32,8.66,8.32H80.41Z" transform="translate(-7.5 -8.5)" style="fill:none;stroke:#fff;stroke-miterlimit:10;stroke-width:9px"/></svg>